<svg xmlns="http://www.w3.org/2000/svg" width="68" height="68" viewBox="0 0 100 100" preserveAspectRatio="xMidYMid" fill="#ee3224">
<title>Loading</title>
<rect x="48" y="18.5" rx="2" ry="2.66" width="4" height="19"><animate attributeName="opacity" values="1;0" keyTimes="0;1" dur="1.0526315789473684s" begin="-0.9649122807017544s" repeatCount="indefinite"/></rect>
<rect x="48" y="18.5" rx="2" ry="2.66" width="4" height="19" transform="rotate(30 50 50)"><animate attributeName="opacity" values="1;0" keyTimes="0;1" dur="1.0526315789473684s" begin="-0.8771929824561403s" repeatCount="indefinite"/></rect>
<rect x="48" y="18.5" rx="2" ry="2.66" width="4" height="19" transform="rotate(60 50 50)"><animate attributeName="opacity" values="1;0" keyTimes="0;1" dur="1.0526315789473684s" begin="-0.7894736842105263s" repeatCount="indefinite"/></rect>
<rect x="48" y="18.5" rx="2" ry="2.66" width="4" height="19" transform="rotate(90 50 50)"><animate attributeName="opacity" values="1;0" keyTimes="0;1" dur="1.0526315789473684s" begin="-0.7017543859649122s" repeatCount="indefinite"/></rect>
<rect x="48" y="18.5" rx="2" ry="2.66" width="4" height="19" transform="rotate(120 50 50)"><animate attributeName="opacity" values="1;0" keyTimes="0;1" dur="1.0526315789473684s" begin="-0.6140350877192983s" repeatCount="indefinite"/></rect>
<rect x="48" y="18.5" rx="2" ry="2.66" width="4" height="19" transform="rotate(150 50 50)"><animate attributeName="opacity" values="1;0" keyTimes="0;1" dur="1.0526315789473684s" begin="-0.5263157894736842s" repeatCount="indefinite"/></rect>
<rect x="48" y="18.5" rx="2" ry="2.66" width="4" height="19" transform="rotate(180 50 50)"><animate attributeName="opacity" values="1;0" keyTimes="0;1" dur="1.0526315789473684s" begin="-0.43859649122807015s" repeatCount="indefinite"/></rect>
<rect x="48" y="18.5" rx="2" ry="2.66" width="4" height="19" transform="rotate(210 50 50)"><animate attributeName="opacity" values="1;0" keyTimes="0;1" dur="1.0526315789473684s" begin="-0.3508771929824561s" repeatCount="indefinite"/></rect>
<rect x="48" y="18.5" rx="2" ry="2.66" width="4" height="19" transform="rotate(240 50 50)"><animate attributeName="opacity" values="1;0" keyTimes="0;1" dur="1.0526315789473684s" begin="-0.2631578947368421s" repeatCount="indefinite"/></rect>
<rect x="48" y="18.5" rx="2" ry="2.66" width="4" height="19" transform="rotate(270 50 50)"><animate attributeName="opacity" values="1;0" keyTimes="0;1" dur="1.0526315789473684s" begin="-0.17543859649122806s" repeatCount="indefinite"/></rect>
<rect x="48" y="18.5" rx="2" ry="2.66" width="4" height="19" transform="rotate(300 50 50)"><animate attributeName="opacity" values="1;0" keyTimes="0;1" dur="1.0526315789473684s" begin="-0.08771929824561403s" repeatCount="indefinite"/></rect>
<rect x="48" y="18.5" rx="2" ry="2.66" width="4" height="19" transform="rotate(330 50 50)"><animate attributeName="opacity" values="1;0" keyTimes="0;1" dur="1.0526315789473684s" begin="0s" repeatCount="indefinite"/></rect>
</svg>
